<svg version="1.2" xmlns="http://www.w3.org/2000/svg" viewBox="0 0 600 600" width="600" height="600">
	<title>compass-simple</title>
	<style>
		.s0 { fill: #ffffff } 
		.s1 { fill: #797979 } 
	</style>
	<g id="Layer 2">
		<path id="Path 0" class="s0" d="m294 27v15h8l0.1-17.5 9.4 17.5h9.5v-30h-8.2l-0.3 18.1-9.5-18.1h-9zm-285 259.3c0 0.6 1.5 7.3 3.3 14.7l3.2 13.5 9.5 0.5c3.5-14.7 4.8-18.6 5.1-18.2 0.4 0.4 1.6 4.5 2.6 9.2l2 8.5c9.3 0.5 9.3 0.5 10.3-3.3 0.5-2 2.1-8.5 3.5-14.5 1.4-5.9 2.5-10.9 2.5-11.2 0-0.3-1.8-0.5-4-0.5-3.5 0-4.1 0.3-4.6 2.7-0.3 1.6-1.4 5.9-2.3 9.8l-1.7 7c-2-9.3-3-13.7-3.5-15.8-0.9-3.6-1-3.7-5.1-3.5l-4.2 0.3-4.3 18c-1.7-6.2-2.7-10.4-3.3-13.3l-1-5.2c-6.5 0-8 0.5-8 1.2zm563 13.8v15h21v-7h-13v-6h12v-6c-11.7 0-12-0.1-12-2.5 0-2.4 0.2-2.5 6.5-2.5h6.5v-6h-21zm-270.7 259q-3.3 1-4.8 4.1c-0.8 1.7-1.2 4.6-1 6.3 0.2 1.7 1 3.7 1.7 4.3 0.7 0.7 4 2.1 7.3 3.1 4 1.2 6.1 2.4 6.3 3.5q0.2 1.7-2.5 2.4c-1.6 0.3-4.4 0.2-6.3-0.4-1.9-0.6-4.2-1.2-5-1.4-1.1-0.3-1.5 0.5-1.5 3.1 0 2.8 0.4 3.5 2.5 4.1 1.4 0.4 5.1 0.7 8.3 0.8 3.1 0.1 6.9-0.5 8.5-1.3 1.5-0.7 3-2.1 3.5-3 0.4-0.9 0.7-3.2 0.7-5.1 0-2.3-0.8-4.3-2.2-5.8-1.3-1.3-4.1-2.7-6.3-3.1-2.2-0.3-4.9-1.2-5.9-1.9-1.3-0.8-1.6-1.6-1-2.6 0.7-1.1 2.3-1.3 7.2-0.8l6.2 0.7c0-4.6-0.3-6.2-0.7-6.4-0.5-0.2-3.3-0.6-6.3-1-3-0.3-7-0.1-8.7 0.4z"/>
		<path id="Path 1" class="s1" d="m308.1 184.9c0 62.2 0.2 113.1 0.6 113.1 0.5 0 7.7-6.9 16.1-15.3 13.9-13.9 15.2-15.5 15.2-18.7 0-1.9-6.7-45.8-14.8-97.4-8.8-56.5-15.2-94.1-15.8-94.4-0.9-0.3-1.2 28.9-1.3 112.7zm-132.8 96.5c-56.3 8.8-96.7 15.6-97.5 16.4-1 0.9 21.6 1.2 113 1.2 90.7 0 114.2-0.3 114.2-1.2 0-0.7-6.9-8.2-15.2-16.5-8.4-8.4-16-15.2-16.8-15.2-0.8 0.1-44.8 6.9-97.7 15.3zm133.7 19.4c0 0.4 7.1 7.8 15.7 16.5l15.8 15.8c165.4-25.7 196.9-31 197.2-31.8 0.2-1-23.1-1.3-114.2-1.3-63 0-114.5 0.3-114.5 0.8zm-20 16.7l-15.5 15.5c24.7 158 31.4 197.9 32 197.7 0.7-0.3 1.1-39.5 1.3-114.5 0.2-91.6 0-114.2-1.1-114.2-0.7 0-8.2 7-16.7 15.5z"/>
		<path id="Path 2" class="s0" d="m305.5 58.3c-0.3 1.2-7.7 48.1-16.5 104.2l-15.9 102c24.7 24.8 31.9 32.6 31.9 33.3 0 0.9-23.3 1.2-113.3 1.2-62.2-0.1-115.2-0.5-117.7-0.9-2.5-0.5-6-0.6-7.8-0.3-1.8 0.4-3.2 1.3-3.2 2 0 0.6 1.5 1.4 3.3 1.7 1.7 0.3 48 7.5 102.7 16 54.7 8.5 100.5 15.7 101.8 16 1.2 0.3 2.4 1.3 2.6 2.3 0.2 1 0.4 0.7 0.5-0.8 0.1-1.8 4.2-6.6 15.6-17.7 8.6-8.4 16-15.3 16.5-15.3 0.6 0 0.9 43.2 0.6 116.3-0.2 63.9-0.6 117.9-1 120-0.4 2.8-0.2 3.9 0.9 4.5 0.8 0.4 1.7 0.5 1.9 0.2 0.2-0.3 7.7-47.3 16.6-104.5 9.1-58 16.7-104.3 17.4-104.7q1.1-0.8-0.4-0.8c-0.8 0-8.6-7.1-17.2-15.7-8.7-8.7-15.8-16.1-15.8-16.5 0-0.5 51.2-0.8 113.8-0.8 73.5 0 115.3 0.4 118.2 1.1 2.5 0.5 5.7 0.7 7.3 0.4 1.5-0.3 2.7-1.2 2.7-2 0-1.2-3.7-2.1-17.2-4.1-9.5-1.4-56.7-8.7-104.8-16.3l-87.5-13.6c-1.2-5.8-1.3-5.7-1.4-2-0.1 3.8-0.9 4.8-15.8 19.5l-15.8 15.5c-0.4-172.8-0.2-225.9 0.3-229.5 0.4-3.6 0.6-8 0.5-9.7q-0.2-3.3-1.7-3.3c-0.9 0-1.8 1-2.1 2.3z"/>
	</g>
</svg>